**ABCDEFGHIJKLMNOPQRSTUVWXYZabcdefghijklmnopqrstuvwxyz**************************
**PARASOLID !"#$%&'()*+,-./:;<=>?@[\]^_`{|}~0123456789**************************
**PART1;
MC=AMD64;
MC_MODEL=Intel64 Family 6 Model 94 Stepping 3, GenuineIntel;
MC_ID=unknown;
OS=Windows_NT;
OS_RELEASE=unknown;
FRU=Parasolid Version 33.1, build 255,  1- 8-2022;
APPL=SOLIDWORKS 2022-2022167;
SITE=;
USER=unknown;
FORMAT=text;
GUISE=transmit;
KEY=FILEmakeProjectedPlanarWire.x_t;
DATE=Tue Oct 17 22:25:27 2023;
**PART2;
SCH=SCH_3301255_33103;
USFLD_SIZE=0;
**PART3;
**END_OF_HEADER*****************************************************************
T51 : TRANSMIT FILE created by modeller version 330125523 SCH_3301255_33103_1300
6230 0 12 35 CCCI7 lattice222 0 CCCI4 mesh1006 0 I8 polyline1008 0 CCCCCCCDI5 ow
ner1040 0 CCCCCCI13 boundary_mesh1006 0 I17 boundary_polyline1008 0 CCCA16 index
_map_offset0 0 1 dA9 index_map82 0 A17 node_id_index_map82 0 A20 schema_embeddin
g_map82 0 A5 child12 0 A14 lowest_node_id0 0 1 dA16 mesh_offset_data206 0 Z1 697
 0 0 0 0 0 0 0 0 0 1e3 1e-8 0 2 0 1 0 3 1 3 4 5 6 0 0 7 8 9 0 0 0 0 0 0 0 13 255
 3 74 0 1 0 10 0 0 7 10 50 255 4 3 0 10 0 0 0 +0 0 0 0 1 0 0 0 1 31 255 5 45 0 8
 11 0 0 +0 0 0 0 1 0 0 0 1 .015 29 255 6 697 0 9 12 0 -.002205471133530455 0 -.0
13825190670626 19 8 CCCCCCCA5 owner12 0 Z7 73 0 1 0 0 3 V0 16 255 8 43 0 ?13 0 1
4 5 0 0 1 18 255 9 673 0 15 0 16 6 ?1 17 255 15 0 17 18 19 9 20 21 0 22 -18 16 6
48 0 18 9 23 12 ?1 17 18 0 17 24 15 16 22 25 0 26 -18 23 623 0 24 16 27 28 ?1 29
 12 672 0 16 28 6 .0122371141009547 0 .00680095864420711 29 28 647 0 23 29 12 .0
1216694703752626 0 .00692570572476416 29 29 622 0 27 0 28 -.00234669359368505 0
 -.01380192121327164 18 27 621 0 20 23 0 29 ?1 17 20 0 0 0 0 27 15 21 0 19 +16 2
1 674 0 ?20 25 0 11 25 14 1 17 19 0 17 15 24 27 30 14 0 0 -15 255 17 7 0 19 10 3
1 17 24 0 17 19 18 23 26 32 0 30 -17 30 0 0 0 0 23 19 14 0 0 +16 14 9 0 ?30 8 32
 11 21 32 1 16 32 624 0 ?26 14 25 11 14 25 1 31 11 11 0 14 0 5 0 +0 0 0 0 1 0 0
 0 1 .014 17 26 0 0 0 0 16 24 32 0 0 +16 25 649 0 ?22 32 21 11 32 21 1 17 22 0 0
 0 0 9 18 25 0 0 +14 255 10 1 0 ?0 0 17 3 4 +0 0 0 0 3 15 31 8 0 13 10 0 17 13 0
 31 13 13 0 33 8 0 0 +17 33 0 0 0 0 0 13 8 0 0 -1 0 
